<svg width="322" height="60" viewBox="0 0 322 60" fill="none" xmlns="http://www.w3.org/2000/svg">
<path fill-rule="evenodd" clip-rule="evenodd" d="M319.953 11.1159L320.678 14.2383C321.052 15.9619 321.352 17.3857 321.302 17.4357C321.252 17.4607 320.653 17.2109 318.729 16.2367H307.663C299.37 16.2367 296.472 16.3116 295.973 16.5364C295.598 16.7113 295.148 17.1609 294.974 17.5356C294.774 17.9603 294.624 19.0344 294.624 20.2334C294.624 22.0819 294.674 22.2817 296.073 23.8554L306.914 23.9803C316.381 24.0802 317.83 24.1552 318.479 24.5299C318.879 24.7547 319.528 25.2543 319.878 25.654C320.253 26.0286 320.728 26.7281 320.952 27.1527C321.302 27.8771 321.352 29.1761 321.352 36.595C321.352 41.7658 321.252 45.4627 321.102 45.8374C320.952 46.1871 320.478 46.8616 320.028 47.3862C319.603 47.8857 318.779 48.4853 318.23 48.7351C317.305 49.1597 316.131 49.2097 284.882 49.2097L284.657 48.2604C284.507 47.7608 284.157 46.362 283.833 45.163C283.508 43.964 283.308 42.9148 283.383 42.8399C283.458 42.7649 284.133 42.9898 286.256 43.964L308.662 43.8391L309.387 43.0147C310.086 42.2404 310.111 42.1405 310.111 39.6425C310.111 37.6192 310.036 36.9697 309.687 36.4951C309.437 36.1454 308.862 35.7207 308.413 35.5459C307.813 35.2961 305.265 35.2211 297.497 35.2211C289.628 35.2211 287.205 35.1462 286.555 34.8964C286.131 34.6966 285.381 34.172 284.907 33.6974C284.457 33.2228 283.883 32.5233 283.658 32.0987C283.308 31.4492 283.258 30.2502 283.258 23.2309C283.258 15.4373 283.283 15.0626 283.783 14.1134C284.083 13.5639 284.707 12.7895 285.157 12.3898C285.631 11.9901 286.331 11.5155 286.755 11.3407C287.355 11.0659 290.777 11.0159 319.953 11.1159ZM95.9117 10.7412L100.508 21.7821C103.031 27.8771 106.453 36.0454 108.077 39.9672C109.725 43.9889 111.349 47.4861 111.774 48.0356C112.198 48.5352 112.448 49.0098 112.348 49.0848C112.273 49.1597 109.051 49.2097 105.229 49.2097C100.858 49.2097 98.2348 49.1097 98.1598 48.9599C98.0849 48.81 98.2098 48.5602 98.4096 48.4103C98.6344 48.2355 98.8093 47.9357 98.7843 47.7858C98.7843 47.611 97.96 45.4877 95.1623 38.7183H77.8015L75.6533 42.8898C74.4043 45.2879 73.4301 47.536 73.1803 49.2097H69.6831C67.7597 49.2097 66.1111 49.1347 66.0112 49.0348C65.9112 48.9349 66.261 48.3354 66.8105 47.7109C67.46 46.9615 70.6324 41.0164 76.1778 30.1003C80.799 21.0327 84.546 13.4889 84.546 13.364C84.546 13.2391 84.3212 12.6396 84.0464 12.0401C83.7716 11.4656 83.6217 10.941 83.7216 10.8661C83.7966 10.7911 86.5943 10.7412 95.9117 10.7412ZM84.0963 26.4283C82.2728 30.0254 80.799 33.0729 80.799 33.2228C80.799 33.3726 82.9473 33.4726 86.7941 33.4726C90.0914 33.4726 92.7892 33.3976 92.7892 33.2977C92.7892 33.1728 91.5902 30.1253 90.1164 26.5033L87.4186 19.9087L84.0963 26.4283ZM119.492 10.7162V11.5405C119.492 11.9901 121.491 18.21 123.939 25.3542C126.362 32.5233 128.46 38.4185 128.585 38.4685C128.71 38.5434 129.459 36.8448 130.234 34.6965C131.033 32.5733 133.181 26.853 135.005 21.957C136.828 17.086 138.377 12.5897 138.602 10.8411L141.849 10.7911C143.648 10.7412 145.271 10.7661 145.471 10.8411C145.796 10.966 145.771 11.0909 145.321 11.5405C145.021 11.8403 144.072 13.8886 143.223 16.0868C142.374 18.285 139.201 26.5033 136.179 34.3219C133.156 42.1654 130.658 48.7101 130.583 48.8849C130.508 49.1097 129.209 49.1847 125.113 49.1847C121.716 49.1847 119.742 49.1097 119.742 48.9349C119.742 48.81 116.919 40.4169 113.472 30.2752C109.076 17.3857 107.053 11.7653 106.728 11.5405C106.478 11.3657 106.328 11.1159 106.403 10.966C106.478 10.8161 108.951 10.7162 119.492 10.7162ZM272.992 10.7162C276.564 10.7162 279.586 10.7661 279.686 10.8411C279.786 10.916 279.611 11.3906 278.737 12.8394V47.4111L279.311 48.1855C279.611 48.6102 279.786 49.0098 279.711 49.0598C279.611 49.1347 276.614 49.2097 273.017 49.2097C269.445 49.2097 266.422 49.1597 266.322 49.0848C266.222 49.0098 266.347 48.5852 266.622 48.1355C267.121 47.3362 267.121 46.9115 267.071 29.6757C267.021 13.2391 266.972 11.9901 266.572 11.5655C266.322 11.3157 266.197 11.0159 266.297 10.916C266.397 10.8161 269.395 10.7162 272.992 10.7162ZM149.693 10.966H182.316L183.115 14.1634C183.565 15.9119 183.89 17.3857 183.865 17.4107C183.84 17.4607 183.215 17.1859 181.067 16.2367L162.457 16.2117V27.4525H170.401C175.372 27.4525 178.694 27.3526 179.318 27.1777C179.868 27.0278 180.492 26.7531 180.692 26.5532C180.917 26.3784 181.167 26.3034 181.267 26.4033C181.367 26.5033 181.467 28.1019 181.467 29.9504C181.467 31.8239 181.417 33.4226 181.342 33.5225C181.267 33.6224 180.892 33.5225 180.517 33.2727C179.918 32.873 178.944 32.8231 162.457 32.6982V43.939H171.65C179.069 43.939 181.017 43.864 181.816 43.5643C182.366 43.3644 183.015 43.0397 183.265 42.8149C183.515 42.6151 183.74 42.5401 183.815 42.64C183.865 42.74 183.565 44.2387 182.316 49.0598L166.454 49.1347C157.736 49.1597 150.467 49.1347 150.292 49.0848C150.042 48.9849 150.092 48.76 150.417 48.1355C150.817 47.3862 150.842 46.0123 150.842 12.5147L149.693 10.966ZM221.059 10.966L221.809 14.0884C222.208 15.812 222.508 17.2858 222.483 17.3358C222.458 17.4107 221.859 17.1859 219.935 16.2117L202.399 16.3366L201.2 17.7105V29.9504C201.2 37.6192 201.275 42.3902 201.45 42.69C201.575 42.9648 202.075 43.3644 202.574 43.5643C203.274 43.864 204.872 43.939 211.492 43.939C217.912 43.914 219.76 43.8391 220.56 43.5643C221.109 43.3644 221.734 43.0147 221.983 42.8149C222.258 42.5901 222.483 42.5401 222.558 42.69C222.608 42.8399 222.308 44.3636 221.059 49.2097L193.532 49.0598L192.308 48.3104C191.408 47.7609 190.909 47.2113 189.685 44.8133V30.0753C189.71 16.2616 189.735 15.2874 190.184 14.3382C190.434 13.7887 191.009 12.9893 191.483 12.5647C191.933 12.14 192.657 11.5905 193.082 11.3906C193.732 11.0409 195.53 10.991 221.059 10.966ZM227.479 10.966H261.526L262.325 14.1634C262.775 15.9119 263.075 17.3857 263 17.4607C262.925 17.5356 262.625 17.4357 262.325 17.2358C262.001 17.036 261.476 16.7363 261.151 16.5364C260.677 16.3116 259.128 16.2117 250.16 16.2117L250.285 47.3862L250.835 48.1605C251.135 48.5852 251.334 48.9848 251.234 49.0598C251.135 49.1347 248.112 49.1847 244.49 49.1847C240.868 49.1847 237.92 49.1347 237.92 49.0598C237.92 48.9848 238.095 48.5852 238.345 48.1355C238.745 47.3862 238.795 46.0373 238.92 16.2117H233.724C228.653 16.2117 228.503 16.2117 227.304 16.8362C226.605 17.1859 226.005 17.4357 225.98 17.4107C225.93 17.3607 226.255 15.9119 226.68 14.1634L227.479 10.966Z" fill="white"/>
<path d="M36.3869 42.6323H22.7636V33.3406H33.5051L50.5343 21.5894H59.9986V26.1328L36.3869 42.6323Z" fill="white"/>
<path d="M36.4078 -6.10352e-05H22.7965V9.41228H33.5285L50.5427 21.3161H59.9987V16.7138L36.4078 -6.10352e-05Z" fill="white"/>
<path d="M59.9986 25.7451H50.4986V17H59.9986V25.7451Z" fill="white"/>
<path d="M23.6103 16.397H37.2337V25.6887H26.4922L9.46298 37.4399H-0.00131792V32.8965L23.6103 16.397Z" fill="white"/>
<path d="M23.5889 59.0293H37.2003V49.617H26.4682L9.45403 37.7131H-0.00195312V42.3155L23.5889 59.0293Z" fill="white"/>
<path d="M-0.00195312 33H9.49805V42H-0.00195312V33Z" fill="white"/>
</svg>
